<svg xmlns="http://www.w3.org/2000/svg" xmlns:xlink="http://www.w3.org/1999/xlink" viewBox="0 0 67 37" fill="#fff" fill-rule="evenodd" stroke="#000" stroke-linecap="round" stroke-linejoin="round"><use xlink:href="#A" x=".5" y=".5"/><symbol id="A" overflow="visible"><path d="M3.265 0v23.206l10.25-11.557h.467l-7.598 8.575 10.014 14.718H13.13L4.51 22.256l-1.257 1.447v11.24H0V0zm26.77 35.135q-4.92 0-8-2.795-3.07-2.795-3.082-8.62 0-5.824 3.2-9.03 3.2-3.205 8.114-3.23 4.92 0 8 2.798 3.07 2.798 3.078 8.622 0 5.83-3.2 9.043-3.2 3.212-8.112 3.214zm.303-23.302q-3.54 0-5.87 3.147-2.33 3.147-2.332 8.767 0 5.615 2.143 8.317 2.143 2.702 5.682 2.702 3.54 0 5.87-3.147 2.332-3.147 2.332-8.76 0-5.615-2.143-8.317-2.142-2.702-5.686-2.706zm33.97 23.107q-3.17 0-4.333-1.2-1.073-1.024-1.073-1.78v-.98q-2.284 4.14-7.314 4.14-5.876 0-6.666-5.312a6.88 6.88 0 0 1-.093-1.142c.006-.434.07-.865.187-1.282q.185-.7 1.073-1.536 1.78-1.68 7.8-2.052 1.5-.14 2.746-.14 1.255 0 2.283.1v-7.72q-.093-.045 0-.445a1.76 1.76 0 0 0-.162-1.024 6.46 6.46 0 0 0-.668-1.237q-.423-.605-1.5-1.046a7.43 7.43 0 0 0-2.795-.445 15.6 15.6 0 0 0-4.051.637q-2.303.63-3.376 1.235l-.187-.327a19.98 19.98 0 0 1 8.435-1.91q4.796 0 6.336 1.725 1.2 1.35 1.2 2.842v15.6q0 1.353.54 2.074.54.72 1.095.768l.512.093h1.447v.367zm-11.974-.187c1.643.002 3.228-.603 4.45-1.7q1.98-1.7 2.12-3.285v-5.63q-1.262-.102-2.542-.102c-.848 0-1.695.047-2.537.14q-3.543.423-4.616 1.585-1.073 1.162-1.068 3.216a8.34 8.34 0 0 0 .045.839q.418 4.947 4.146 4.947z" stroke="none" fill="#16111c" fill-rule="nonzero"/></symbol></svg>