<svg xmlns="http://www.w3.org/2000/svg" xmlns:xlink="http://www.w3.org/1999/xlink" viewBox="0 0 107.78 44.78" fill="#fff" fill-rule="evenodd" stroke="#000" stroke-linecap="round" stroke-linejoin="round"><use xlink:href="#A" x="1.89" y="1.89"/><symbol id="A" overflow="visible"><g stroke="none" fill="#ea2845"><path d="M23.78 0c-.29 0-.567.064-.813.15.483.316.83.802.97 1.36l.038.196c.008.076.023.125.023.19.038.918-.238 1.032-.438 1.576a2.23 2.23 0 0 0 .147 2.052 1.24 1.24 0 0 0 .125.231c-.397-2.638 1.803-3.035 2.21-3.855.03-.756-.567-1.198-1.032-1.534-.37-.233-.796-.356-1.232-.355zm3.315.593c-.038.238-.01.178-.023.302l-.023.272-.076.25a2.33 2.33 0 0 1-.083.25l-.113.238c-.03.038-.053.083-.083.125l-.064.095-.15.208c-.064.064-.113.136-.19.19s-.125.125-.197.178c-.22.166-.47.29-.7.454-.075.053-.15.095-.208.15s-.136.106-.197.166l-.19.197c-.064.076-.113.136-.15.208l-.15.22-.113.238-.083.238-.076.264c-.01.038-.01.095-.023.136s-.01.083-.023.125l-.01.265c-.002.063.002.126.01.19 0 .083.01.166.03.265l.053.25.083.25c.023.053.053.106.076.15l-2.396-.93-1.21-.314-.658-.15-1.897-.28a17.57 17.57 0 0 0-1.92-.106l-1.36.053-1.91.23-.47.083-.937.208-.47.125-.453.197-.378.15-.378.166-.076.03-.325.166c-.076.03-.15.076-.208.106-.03.023-.076.038-.095.053l-.272.15-.25.15-.208.15-.227.166-.178.15-.22.178-.227.22-.208.197-.178.19c-.023.023-.053.038-.075.064-.053.064-.113.125-.178.19l-.28.302-.567.54a5.94 5.94 0 0 1-.582.457l-.627.397c-.213.117-.433.222-.658.314l-.68.25c-.438.095-.884.272-1.274.302-.083 0-.178.023-.265.03l-.265.064-.25.094c-.083.03-.166.076-.25.113s-.15.095-.227.15-.143.113-.208.178c-.076.055-.146.118-.208.19l-.106.212c-.053.083-.113.15-.15.238s-.106.15-.15.238l-.113.272-.095.272-.053.25c-.03.125-.03.25-.038.314S0 13.372 0 13.444a.57.57 0 0 0 .011.136l.038.197.076.19c.03.075.076.136.113.196l.136.19.178.166c.064.064.125.113.197.166.25.22.314.29.635.454.053.03.106.053.166.083l.095.314c.02.087.053.178.083.25l.083.19.15.28.15.22.178.197c.064.064.125.113.197.178l.208.15c.073.05.15.097.23.136s.15.083.238.113c.064.03.136.053.208.076l.178.053c-.03.567-.038 1.134.038 1.285.095.208.552-.427 1.013-1.157-.064.756-.106 1.565 0 1.814s.74-.552 1.285-1.45c3.406-.828 7.004-.132 9.857 1.906s4.676 5.216 4.997 8.707c-.136-1.126-1.523-1.75-2.154-1.595-.314.77-.843 1.76-1.7 2.38.074-.697.038-1.4-.106-2.086-.234.96-.675 1.856-1.293 2.627a2.91 2.91 0 0 1-2.502-1.126c-.038-.03-.053-.094-.083-.136l-.106-.26a1.09 1.09 0 0 1-.064-.219c-.01-.068-.01-.15-.01-.227v-.15c.01-.074.03-.148.053-.22l.076-.22c.038-.076.076-.15.125-.22.178-.5.178-.907-.15-1.145-.064-.038-.125-.076-.197-.106l-.136-.038-.083-.03-.22-.053c-.07-.02-.145-.03-.22-.03-.076-.013-.153-.02-.23-.023-.053 0-.106.01-.15.01-.083 0-.15.01-.227.03l-.22.038-.22.076-.208.095-.197.106c-2.43 1.587-.983 5.29.68 6.372-.627.113-1.262.25-1.436.386.427.29.896.522 1.387.756l1.69.5c.863.185 1.746.25 2.627.197 4.62-.325 8.406-3.836 9.094-8.466l.064.272.095.582c.023.106.03.197.038.28l.023.314.023.378v.166c0 .053.01.113.01.166s-.01.125-.01.19v.15c0 .076-.01.136-.01.208 0 .038 0 .083-.01.136l-.01.227c-.01.03-.01.064-.01.095l-.03.238c0 .03 0 .064-.01.095l-.038.302v.02l-.064.29-.064.314-.166.642-.106.333-.227.605-.125.302-.15.29-.03.076a9.98 9.98 0 0 1-2.952 3.534c-.083.053-.166.113-.25.178-.023.023-.053.03-.076.053l-.227.15.03.064h.01l.438-.064h.015l.813-.15c.076-.01.15-.03.227-.053l.15-.03.22-.038.19-.053c1.033-.252 2.044-.587 3.024-1.002-1.675 2.283-3.903 4.102-6.474 5.288a17.16 17.16 0 0 0 3.557-.616c4.203-1.24 7.737-4.067 9.853-7.873-.43 2.414-1.388 4.703-2.804 6.705 1.013-.67 1.94-1.436 2.786-2.313a16.48 16.48 0 0 0 4.384-8.863 16.76 16.76 0 0 1 .302 5.027c7.53-10.5.627-21.385-2.268-24.253-.038.076-.053.197-.06.325l-.106.7-.178.688-.25.67-.314.635-.378.593-.427.567c-.15.19-.325.355-.49.522l-.54.472a5.83 5.83 0 0 1-.582.408l-.616.355-.658.29c-.222.084-.448.157-.677.22l-.7.15-.71.083-.5.023c-.238 0-.48-.023-.7-.038-.24-.018-.476-.052-.71-.102-.237-.042-.47-.102-.7-.178h-.01l.688-.083.7-.15.68-.22c.227-.083.453-.19.658-.29a7.27 7.27 0 0 0 .627-.344l.582-.378c.187-.145.365-.3.533-.47.174-.16.338-.33.49-.5l.438-.567c.023-.03.038-.076.064-.106l.302-.5.314-.635.25-.67c.076-.22.125-.453.178-.68l.106-.7.038-.71-.02-.5-.083-.7-.15-.7-.227-.67c-.086-.22-.183-.433-.29-.643l-.355-.616-.378-.574-.48-.53-.272-.265-1.448-1.02-.208-.106a4.08 4.08 0 0 0-.99-.438z"/><path d="M47.966 27.17a3.29 3.29 0 0 1 .76-.253c.586-.095.918-.174 1.013-.238.16-.095.265-.227.318-.348.064-.227.095-.68.095-1.4v-1.38l.015-1.126-.05-1.682v-.994c0-.665-.05-1.22-.16-1.633-.03-.16-.174-.318-.397-.476-.302-.227-.756-.427-1.504-.635l-.015-.756.363-.076c.113-.015.54-.128 1.285-.317l1.126-.442.265-.144a4.04 4.04 0 0 1 .427-.317 6.54 6.54 0 0 0 1.141-1.157l.84-.064-.03 1.792c-.015.174-.015.317-.015.427l.015.73c.888-.756 1.682-1.285 2.41-1.587a6.88 6.88 0 0 1 2.683-.586c.93-.02 1.847.24 2.63.744.74.49 1.247 1.058 1.512 1.7s.348 1.965.348 3.916l-.064 5.2a1.36 1.36 0 0 0 .128.601 2.76 2.76 0 0 0 .888.238l.78.144a.87.87 0 0 1 .144.506l-.015.522-3.122-.227-.92.03h-.73l-2.11.16h-.54c-.015-.144-.015-.238-.015-.317l.03-.62c.144-.03.522-.076 1.11-.16.16-.015.333-.064.54-.113.208-.076.333-.174.363-.253.076-.19.13-.522.13-1.032l-.03-2.06.015-1.84c0-2.253-.128-3.647-.378-4.184-.378-.81-1.013-1.2-1.822-1.2a4.31 4.31 0 0 0-1.841.461 7.9 7.9 0 0 0-1.98 1.38l-.03.265.03.998-.015 1.058.064 2.55-.03.397c0 1.727.064 2.7.208 2.933s.665.46 1.587.73l.05.397c0 .128-.05.317-.113.586l-.84.015a8.87 8.87 0 0 1-1.047-.095l-1.746-.015-3.677.113a.83.83 0 0 1-.064-.333l.015-.506zM66.7 19.59c.283-.907.52-1.504.745-1.79a8.86 8.86 0 0 1 1.89-2.041 5.34 5.34 0 0 1 1.822-.968 6.35 6.35 0 0 1 1.712-.302 9.68 9.68 0 0 1 2.411.238 4.5 4.5 0 0 1 1.553.65c.522.36 1 .78 1.425 1.25.373.45.668.957.873 1.504.253.663.387 1.365.397 2.075l-1.776-.03-3.216-.144-1.27-.064-1.712.015h-1.38l-.03.378c0 .567.076 1.157.208 1.79a5.46 5.46 0 0 0 .62 1.633 4.46 4.46 0 0 0 1.032 1.206c.378.348.84.586 1.27.745l.918.302 1.648-.076c.454-.093.9-.226 1.33-.397a8.34 8.34 0 0 0 1.41-.854l.968.756c-.934 1.013-1.92 1.776-2.918 2.268s-2.124.68-3.402.68c-.84 0-1.523-.064-2.06-.227-.685-.18-1.334-.473-1.92-.87-.574-.408-1.083-.9-1.512-1.46-.454-.567-.73-1.2-.934-1.807-.253-.81-.397-1.46-.397-1.935-.008-.84.068-1.68.227-2.506zm9.26-.68a4.89 4.89 0 0 0-.348-1.712c-.22-.556-.567-.953-1.047-1.247a2.57 2.57 0 0 0-1.41-.461c-.756 0-1.35.318-1.935.934s-.888 1.512-.968 2.55l3.628.015.983-.05.665-.05.427.015zm6.047 4.62a3.96 3.96 0 0 1 .699-.095l.333.015.144.16 1.14 1.84c.363.427.73.78 1.134 1.047.238.16.62.348 1.142.522a3.29 3.29 0 0 0 1.126.189c.63.016 1.244-.21 1.712-.635.476-.442.756-.907.756-1.4 0-.333-.095-.62-.265-.854s-.54-.476-1.077-.756c-.265-.113-.934-.302-2.014-.567l-1.844-.522a4.31 4.31 0 0 1-1.33-.794 3.59 3.59 0 0 1-.888-1.156c-.265-.605-.378-1.126-.378-1.512 0-.81.13-1.46.348-1.98.24-.515.58-.98.998-1.364.302-.302.756-.567 1.38-.81a5.52 5.52 0 0 1 1.996-.363c.893-.012 1.785.058 2.665.208.67.113 1.323.322 1.935.62.076.238.16.81.283 1.682l.174 1.57a.61.61 0 0 1-.049.238c-.226.073-.462.116-.7.128-.094 0-.253-.015-.46-.03l-.378-.665c-.507-.952-1.032-1.618-1.57-1.996s-1.14-.586-1.9-.586-1.35.227-1.84.635c-.364.32-.563.786-.54 1.27 0 .348.19.7.567 1.058s1.013.65 1.935.84c1.398.302 2.426.62 3.076.92.952.442 1.633.983 2.014 1.587a3.84 3.84 0 0 1 .586 2.094 3.96 3.96 0 0 1-1.41 3.092c-.934.824-2.268 1.22-4.06 1.22l-1.822-.16c-.442-.05-.968-.16-1.57-.317l-1.172-.46a.83.83 0 0 1-.253-.227c-.03-.095-.113-.54-.208-1.33l-.264-2.332zm13.062-7.612c1.247-.522 2.154-1.047 2.7-1.512s1.157-1.35 1.79-2.495h.907a2.72 2.72 0 0 1 .144.873l-.015 1.3-.05.934.015.363.363.015 1.49-.064 1.19-.03a3.67 3.67 0 0 1 .11.76c0 .253-.05.54-.13.854-.263.04-.528.06-.794.064-.076 0-.253 0-.506-.03h-.824l-.287-.015-.756.03-.03 6.047.064 2.203a2.23 2.23 0 0 0 .382.839 1.89 1.89 0 0 0 .809.174c.284 0 .49-.03.635-.075s.378-.208.7-.46c.064-.064.174-.13.302-.227.237.17.45.373.635.6l.064.19c-.4.598-.938 1.075-1.584 1.38-.665.333-1.38.49-2.14.49-.998 0-1.79-.318-2.41-.934s-.918-1.602-.918-2.918l.064-2.79v-4.54l-.49-.015-1.156.015-.208-.05c-.06-.076-.092-.17-.095-.265l.03-.756z" fill-rule="nonzero"/></g></symbol></svg>