<?xml version="1.0" encoding="UTF-8" standalone="no"?>
<svg
   xmlns:dc="http://purl.org/dc/elements/1.1/"
   xmlns:cc="http://creativecommons.org/ns#"
   xmlns:rdf="http://www.w3.org/1999/02/22-rdf-syntax-ns#"
   xmlns:svg="http://www.w3.org/2000/svg"
   xmlns="http://www.w3.org/2000/svg"
   xmlns:sodipodi="http://sodipodi.sourceforge.net/DTD/sodipodi-0.dtd"
   xmlns:inkscape="http://www.inkscape.org/namespaces/inkscape"
   width="254px"
   height="51px"
   viewBox="0 0 254 51"
   version="1.1"
   id="svg4247"
   inkscape:version="0.91 r13725"
   sodipodi:docname="logo-homepage.svg">
  <metadata
     id="metadata4285">
    <rdf:RDF>
      <cc:Work
         rdf:about="">
        <dc:format>image/svg+xml</dc:format>
        <dc:type
           rdf:resource="http://purl.org/dc/dcmitype/StillImage" />
      </cc:Work>
    </rdf:RDF>
  </metadata>
  <sodipodi:namedview
     pagecolor="#ffffe4"
     bordercolor="#666666"
     borderopacity="1"
     objecttolerance="10"
     gridtolerance="10"
     guidetolerance="10"
     inkscape:pageopacity="0"
     inkscape:pageshadow="2"
     inkscape:window-width="3391"
     inkscape:window-height="1422"
     id="namedview4283"
     showgrid="false"
     inkscape:zoom="5.8484252"
     inkscape:cx="70.710799"
     inkscape:cy="50.825105"
     inkscape:window-x="49"
     inkscape:window-y="18"
     inkscape:window-maximized="1"
     inkscape:current-layer="svg4247" />
  <!-- Generator: Sketch 3.7.2 (28276) - http://www.bohemiancoding.com/sketch -->
  <title
     id="title4249">logo-homepage</title>
  <desc
     id="desc4251">Created with Sketch.</desc>
  <defs
     id="defs4253" />
  <g
     id="Hack-Space"
     stroke="none"
     stroke-width="1"
     fill="none"
     fill-rule="evenodd">
    <g
       id="Winner"
       transform="translate(-152.000000, -577.000000)">
      <g
         id="logo-homepage"
         transform="translate(152.000000, 577.000000)">
        <g
           id="Oval-+-Shape-+-Shape"
           fill="#91F200">
          <ellipse
             id="Oval"
             cx="50.2517647"
             cy="9.42540594"
             rx="9.41142857"
             ry="9.42540594" />
          <polygon
             id="Shape"
             points="31.6684034 3.52285894e-15 21.1547899 3.52285894e-15 -7.04571788e-15 50.9096139 10.5136134 50.9096139" />
          <polygon
             id="polygon4261"
             points="14.6218487 50.9096139 18.7628571 50.9096139 39.9176471 3.52285894e-15 35.7766387 3.52285894e-15" />
        </g>
        <g
           id="restify_logo_black"
           transform="translate(85.000000, 2.000000)"
           fill="#000000">
          <g
             id="Layer_1">
            <g
               id="Group">
              <path
                 d="M13.209,11.163 C9.959,11.163 6.209,13.763 4.309,18.063 L4.309,13.212 C4.309,12.111 3.459,11.262 2.358,11.262 C1.309,11.262 0.458,12.162 0.458,13.212 L0.458,35.663 C0.458,36.764 1.31,37.613 2.409,37.613 C3.508,37.613 4.309,36.713 4.309,35.663 L4.309,26.862 C4.309,19.412 8.409,15.662 13.409,15.061 C14.409,14.912 15.11,14.162 15.11,13.111 C15.109,12.013 14.359,11.163 13.209,11.163 L13.209,11.163 Z"
                 id="path4266" />
              <path
                 d="M35.4,10.963 C28.25,10.963 23,16.963 23,24.413 L23,24.514 C23,32.514 28.801,37.964 35.9,37.964 C40.3,37.964 43.201,36.414 45.65,34.065 C46.05,33.714 46.25,33.264 46.25,32.815 C46.25,31.915 45.5,31.165 44.551,31.165 C44.102,31.165 43.75,31.365 43.451,31.615 C41.551,33.365 39.201,34.615 36,34.615 C31.4,34.615 27.449,31.465 26.9,25.864 L45.601,25.864 C46.55,25.864 47.4,25.114 47.4,24.064 C47.4,17.213 43.05,10.963 35.4,10.963 L35.4,10.963 Z M26.9,23.014 C27.4,17.963 30.8,14.213 35.3,14.213 C40.45,14.213 43.15,18.314 43.55,23.014 L26.9,23.014 L26.9,23.014 Z"
                 id="path4268" />
              <path
                 d="M66.55,22.613 C63.101,21.563 59.9,20.613 59.9,18.163 L59.9,18.063 C59.9,15.913 61.851,14.312 64.9,14.312 C67.101,14.312 69.451,15.062 71.652,16.312 C71.851,16.413 72.152,16.512 72.502,16.512 C73.451,16.512 74.201,15.762 74.201,14.863 C74.201,14.113 73.752,13.562 73.252,13.262 C70.752,11.912 67.752,11.062 65.002,11.062 C59.9,11.062 56.201,14.012 56.201,18.462 L56.201,18.563 C56.201,23.313 60.701,24.713 64.752,25.863 C68.15,26.813 71.201,27.813 71.201,30.414 L71.201,30.514 C71.201,33.014 68.951,34.615 65.851,34.615 C63.05,34.615 60.3,33.665 57.65,31.865 C57.4,31.665 57.05,31.564 56.701,31.564 C55.75,31.564 55,32.314 55,33.214 C55,33.864 55.35,34.364 55.701,34.614 C58.5,36.614 62.25,37.864 65.65,37.864 C70.8,37.864 74.851,35.013 74.851,30.114 L74.851,30.013 C74.851,25.363 70.55,23.813 66.55,22.613 L66.55,22.613 Z"
                 id="path4270" />
              <path
                 d="M96.349,14.913 C97.3,14.913 98.099,14.163 98.099,13.213 C98.099,12.313 97.3,11.513 96.349,11.513 L89.65,11.513 L89.65,5.412 C89.65,4.362 88.75,3.462 87.699,3.462 C86.599,3.462 85.799,4.362 85.799,5.412 L85.799,11.513 L83.699,11.513 C82.799,11.513 82,12.263 82,13.213 C82,14.113 82.799,14.913 83.699,14.913 L85.799,14.913 L85.799,30.514 C85.799,35.765 88.949,37.815 93.1,37.815 C94.6,37.815 95.801,37.565 96.901,37.115 C97.551,36.865 98.001,36.315 98.001,35.615 C98.001,34.715 97.251,33.965 96.351,33.965 C96.052,33.965 95.351,34.316 94.001,34.316 C91.401,34.316 89.651,33.166 89.651,30.015 L89.651,14.914 L96.349,14.914 L96.349,14.913 Z"
                 id="path4272" />
              <g
                 id="i"
                 transform="translate(107.000000, 1.000000)">
                <path
                   d="M2.258,10.263 C1.207,10.263 0.358,11.163 0.358,12.213 L0.358,34.664 C0.358,35.765 1.208,36.614 2.307,36.614 C3.406,36.614 4.207,35.764 4.207,34.664 L4.207,12.213 C4.207,11.112 3.357,10.263 2.258,10.263 L2.258,10.263 Z"
                   id="path4275" />
                <path
                   d="M2.258,0.362 C1.008,0.362 0.006,1.162 0.006,2.412 L0.006,3.062 C0.006,4.262 1.008,5.112 2.258,5.112 C3.557,5.112 4.557,4.262 4.557,3.062 L4.557,2.412 C4.557,1.162 3.557,0.362 2.258,0.362 L2.258,0.362 Z"
                   id="path4277" />
              </g>
              <path
                 d="M133.05,4.013 C133.8,4.013 134.501,4.162 135.152,4.263 C136.152,4.363 137.002,3.613 137.002,2.613 C137.002,1.762 136.352,1.113 135.602,0.963 C134.752,0.763 133.801,0.663 132.551,0.663 C130.201,0.663 128.301,1.363 127,2.663 C125.551,4.113 124.75,6.363 124.75,9.313 L124.75,11.563 L122.65,11.563 C121.75,11.563 121,12.313 121,13.213 C121,14.163 121.701,14.913 122.65,14.913 L124.75,14.913 L124.75,35.664 C124.75,36.714 125.602,37.614 126.701,37.614 C127.8,37.614 128.601,36.714 128.601,35.664 L128.601,14.913 L135.251,14.913 C136.2,14.913 136.95,14.163 136.95,13.263 C136.95,12.313 136.2,11.613 135.251,11.613 L128.55,11.613 L128.55,9.513 C128.55,5.812 130.05,4.013 133.05,4.013 L133.05,4.013 Z"
                 id="path4279" />
              <path
                 d="M166.908,11.263 C165.908,11.263 165.357,11.913 165.056,12.713 L157.056,33.065 L148.056,12.763 C147.706,11.913 147.156,11.263 146.105,11.263 C145.005,11.263 144.156,12.113 144.156,13.163 C144.156,13.513 144.256,13.863 144.406,14.213 L155.207,37.114 L155.008,37.514 C153.608,40.663 152.207,42.113 149.807,42.113 C148.506,42.113 147.756,41.914 147.006,41.664 C146.707,41.564 146.406,41.465 146.057,41.465 C145.207,41.465 144.407,42.164 144.407,43.113 C144.407,44.013 145.007,44.513 145.606,44.763 C146.907,45.214 148.157,45.513 149.858,45.513 C153.758,45.513 156.258,43.564 158.508,38.213 L168.608,14.112 C168.708,13.811 168.809,13.462 168.809,13.162 C168.809,12.112 167.957,11.263 166.908,11.263 L166.908,11.263 Z"
                 id="path4281" />
            </g>
          </g>
        </g>
      </g>
    </g>
  </g>
</svg>
