<svg xmlns:dc="http://purl.org/dc/elements/1.1/" xmlns:cc="http://creativecommons.org/ns#" xmlns:rdf="http://www.w3.org/1999/02/22-rdf-syntax-ns#" xmlns:svg="http://www.w3.org/2000/svg" xmlns="http://www.w3.org/2000/svg" height="" xml:space="preserve" id="svg2" version="1.1"><g id="g10" transform="matrix(1,0,0,-1,-200,320.84)"><g transform="scale(0.15)" id="g12"><path id="path16" style="fill:#131c1d;fill-opacity:1;fill-rule:nonzero;stroke:none" d="m 1588.96,1573.19 c -22.77,16.01 -44.33,22.16 -72.05,22.16 -28.94,0 -43.72,-10.47 -43.72,-25.25 0,-16.62 15.4,-25.86 44.96,-26.47 59.73,-1.85 131.79,-14.18 132.41,-97.93 0.6,-49.25 -36.34,-102.22 -133.02,-102.22 -44.96,0 -91.15,8.63 -142.87,51.74 l 38.16,62.81 c 37.57,-30.8 73.91,-37.56 105.93,-38.18 25.87,-0.63 46.2,9.84 45.58,25.85 0,14.18 -10.47,25.86 -51.73,27.09 -56.66,2.49 -127.47,25.88 -127.47,97.31 0,68.98 65.26,97.91 131.17,97.91 46.8,0 84.36,-11.68 116.39,-39.39 l -43.74,-55.43"/><path id="path18" style="fill:#131c1d;fill-opacity:1;fill-rule:nonzero;stroke:none" d="m 1759.53,1507.29 c 0,-50.49 35.72,-80.06 80.06,-80.06 49.89,0 80.67,38.81 80.67,76.99 0,43.71 -27.7,83.75 -80.67,83.75 -44.34,0 -80.06,-30.18 -80.06,-80.68 z m 163.82,152.11 h 83.13 c 0,-101 0,-203.23 0,-304.22 h -80.05 l -4.93,38.18 c -20.33,-32.01 -64.05,-44.33 -93.61,-44.96 -91.13,-0.61 -157.03,58.52 -157.03,158.89 0,100.99 69.59,160.11 159.5,158.88 38.18,0 73.9,-14.76 89.9,-41.87 l 3.09,35.1"/><path id="path20" style="fill:#131c1d;fill-opacity:1;fill-rule:nonzero;stroke:none" d="m 2066.21,1660.02 v -304.84 h 88.68 v 304.84 z m 94.83,80.06 c 0,-66.52 -100.99,-66.52 -100.99,0 0,66.5 100.99,66.5 100.99,0"/><path id="path22" style="fill:#131c1d;fill-opacity:1;fill-rule:nonzero;stroke:none" d="m 2303.91,1785.65 v -430.47 h -88.07 v 430.47 h 88.07"/><path id="path24" style="fill:#131c1d;fill-opacity:1;fill-rule:nonzero;stroke:none" d="m 2556.39,1573.19 c -22.79,16.01 -44.34,22.16 -72.05,22.16 -28.95,0 -43.72,-10.47 -43.72,-25.25 0,-16.62 15.39,-25.86 44.95,-26.47 59.72,-1.85 131.78,-14.18 132.4,-97.93 0.61,-49.25 -36.33,-102.22 -133.02,-102.22 -44.95,0 -91.14,8.63 -142.87,51.74 l 38.17,62.81 c 37.57,-30.8 73.91,-37.56 105.93,-38.18 25.87,-0.63 46.19,9.84 45.58,25.85 0,14.18 -10.47,25.86 -51.73,27.09 -56.67,2.49 -127.48,25.88 -127.48,97.31 0,68.98 65.27,97.91 131.17,97.91 46.81,0 84.37,-11.68 116.4,-39.39 l -43.73,-55.43"/><path id="path26" style="fill:#44b0c3;fill-opacity:1;fill-rule:nonzero;stroke:none" d="m 2762.7,1339.87 c 0,0 -279.44,444.66 295.41,730.99 V 1339.87 H 2762.7"/><path id="path28" style="fill:#44b0c3;fill-opacity:1;fill-rule:nonzero;stroke:none" d="m 3147.11,1339.87 v 453.08 c 0,0 91.75,-149.73 278.21,-453.08 h -278.21"/></g></g></svg>